<svg width="116" height="24" viewBox="0 0 116 24" fill="none" xmlns="http://www.w3.org/2000/svg">
<g id="Group 5338">
<g id="Vector">
<path d="M35.1462 9.46756C34.2227 9.02058 33.0432 8.79413 31.6432 8.79413H27.6597C26.5984 8.79413 25.7497 8.49877 25.1432 7.9297L25.1137 7.90016C24.521 7.27596 24.2355 6.57299 24.2355 5.75187C24.2355 4.93076 24.5308 4.17266 25.1137 3.5583C25.7005 2.93409 26.5058 2.61904 27.4982 2.61904H37.3004V0.490443H27.134C26.0293 0.490443 25.0802 0.746425 24.2315 1.26824C23.3829 1.76445 22.7409 2.40441 22.2723 3.21961C21.8036 4.03679 21.5713 4.90122 21.5713 5.87002C21.5713 7.00619 21.8135 7.96908 22.2959 8.73703C22.8138 9.51876 23.501 10.1036 24.393 10.5309C25.3204 10.9247 26.4212 11.1255 27.6597 11.1255H31.8499C32.5549 11.1255 33.183 11.287 33.7147 11.608C34.2581 11.8974 34.6618 12.3109 34.9296 12.8367C35.1915 13.329 35.3136 13.8291 35.3136 14.4159C35.3136 15.0027 35.1698 15.5915 34.8843 16.1271C34.5988 16.6686 34.1597 17.1195 33.5867 17.4739C33.0491 17.7929 32.3914 17.9504 31.6471 17.9504H22.2152V20.0751H32.0961C33.2795 20.0751 34.2778 19.8093 35.1501 19.2638C36.0579 18.7125 36.7392 18.0253 37.2373 17.149C37.7414 16.2491 37.9817 15.3158 37.9817 14.2919C37.9817 13.1025 37.7296 12.0845 37.2413 11.2772C36.7825 10.4816 36.0953 9.88501 35.1481 9.46362L35.1423 9.46756H35.1462Z" fill="#F5F5F5"/>
<path d="M35.1462 9.46756C34.2227 9.02058 33.0432 8.79413 31.6432 8.79413H27.6597C26.5984 8.79413 25.7497 8.49877 25.1432 7.9297L25.1137 7.90016C24.521 7.27596 24.2355 6.57299 24.2355 5.75187C24.2355 4.93076 24.5308 4.17266 25.1137 3.5583C25.7005 2.93409 26.5058 2.61904 27.4982 2.61904H37.3004V0.490443H27.134C26.0293 0.490443 25.0802 0.746425 24.2315 1.26824C23.3829 1.76445 22.7409 2.40441 22.2723 3.21961C21.8036 4.03679 21.5713 4.90122 21.5713 5.87002C21.5713 7.00619 21.8135 7.96908 22.2959 8.73703C22.8138 9.51876 23.501 10.1036 24.393 10.5309C25.3204 10.9247 26.4212 11.1255 27.6597 11.1255H31.8499C32.5549 11.1255 33.183 11.287 33.7147 11.608C34.2581 11.8974 34.6618 12.3109 34.9296 12.8367C35.1915 13.329 35.3136 13.8291 35.3136 14.4159C35.3136 15.0027 35.1698 15.5915 34.8843 16.1271C34.5988 16.6686 34.1597 17.1195 33.5867 17.4739C33.0491 17.7929 32.3914 17.9504 31.6471 17.9504H22.2152V20.0751H32.0961C33.2795 20.0751 34.2778 19.8093 35.1501 19.2638C36.0579 18.7125 36.7392 18.0253 37.2373 17.149C37.7414 16.2491 37.9817 15.3158 37.9817 14.2919C37.9817 13.1025 37.7296 12.0845 37.2413 11.2772C36.7825 10.4816 36.0953 9.88501 35.1481 9.46362L35.1423 9.46756H35.1462Z" fill="url(#paint0_linear_9141_22653)"/>
<path d="M58.5513 1.38231C57.0213 0.466676 55.2255 0 53.217 0C51.2086 0 49.4167 0.466677 47.8769 1.38625C46.341 2.27628 45.1083 3.52075 44.2104 5.08421C43.3125 6.6142 42.8577 8.36473 42.8577 10.2826C42.8577 12.2005 43.3125 13.9708 44.2104 15.5244C45.1083 17.0583 46.343 18.3028 47.8769 19.2223C49.3419 20.0789 51.055 20.5298 52.9611 20.5653H53.217C55.2255 20.5692 57.0174 20.1222 58.5513 19.2282C60.1168 18.3087 61.3494 17.0642 62.2237 15.5362C63.1216 13.9767 63.5764 12.2123 63.5764 10.2905C63.5764 8.36867 63.1216 6.57285 62.2237 5.04286C61.3494 3.51287 60.1168 2.28415 58.5513 1.39018V1.38231ZM60.867 10.2885C60.867 11.8028 60.546 13.1949 59.91 14.4296C59.274 15.6445 58.3761 16.6231 57.2458 17.3458C56.1195 18.0645 54.7234 18.4426 53.2131 18.4426C51.7028 18.4426 50.3501 18.0744 49.1804 17.3458C48.0502 16.6231 47.1523 15.6406 46.5103 14.4256C45.8783 13.1969 45.5534 11.8047 45.5534 10.2905C45.5534 8.77627 45.8743 7.39987 46.5103 6.19478C47.1464 4.95031 48.0502 3.95198 49.1863 3.22932C50.3501 2.50076 51.7087 2.13844 53.2131 2.13844C54.7175 2.13844 56.0998 2.50666 57.2458 3.23523C58.382 3.9638 59.2799 4.95622 59.9159 6.19085C60.548 7.39987 60.8729 8.77627 60.8729 10.2925H60.867V10.2885Z" fill="#F5F5F5"/>
<path d="M58.5513 1.38231C57.0213 0.466676 55.2255 0 53.217 0C51.2086 0 49.4167 0.466677 47.8769 1.38625C46.341 2.27628 45.1083 3.52075 44.2104 5.08421C43.3125 6.6142 42.8577 8.36473 42.8577 10.2826C42.8577 12.2005 43.3125 13.9708 44.2104 15.5244C45.1083 17.0583 46.343 18.3028 47.8769 19.2223C49.3419 20.0789 51.055 20.5298 52.9611 20.5653H53.217C55.2255 20.5692 57.0174 20.1222 58.5513 19.2282C60.1168 18.3087 61.3494 17.0642 62.2237 15.5362C63.1216 13.9767 63.5764 12.2123 63.5764 10.2905C63.5764 8.36867 63.1216 6.57285 62.2237 5.04286C61.3494 3.51287 60.1168 2.28415 58.5513 1.39018V1.38231ZM60.867 10.2885C60.867 11.8028 60.546 13.1949 59.91 14.4296C59.274 15.6445 58.3761 16.6231 57.2458 17.3458C56.1195 18.0645 54.7234 18.4426 53.2131 18.4426C51.7028 18.4426 50.3501 18.0744 49.1804 17.3458C48.0502 16.6231 47.1523 15.6406 46.5103 14.4256C45.8783 13.1969 45.5534 11.8047 45.5534 10.2905C45.5534 8.77627 45.8743 7.39987 46.5103 6.19478C47.1464 4.95031 48.0502 3.95198 49.1863 3.22932C50.3501 2.50076 51.7087 2.13844 53.2131 2.13844C54.7175 2.13844 56.0998 2.50666 57.2458 3.23523C58.382 3.9638 59.2799 4.95622 59.9159 6.19085C60.548 7.39987 60.8729 8.77627 60.8729 10.2925H60.867V10.2885Z" fill="url(#paint1_linear_9141_22653)"/>
<path d="M83.3339 1.1128C81.9811 0.380291 80.3881 0.00616192 78.5903 0.00616192C76.7925 0.00616192 75.2192 0.38029 73.8369 1.12264C72.4507 1.83545 71.3894 2.82 70.5938 4.11764C69.8338 5.40543 69.4478 6.93542 69.4478 8.66626V20.0831H72.114V8.70564C72.114 7.36862 72.4153 6.19307 73.0079 5.21837C73.6203 4.22594 74.4296 3.45405 75.4122 2.91649C76.4086 2.39074 77.4758 2.12491 78.5903 2.12491C79.7048 2.12491 80.7622 2.39074 81.7291 2.91649C82.7313 3.44815 83.5406 4.22003 84.1372 5.2223C84.7536 6.19504 85.0647 7.36075 85.0647 8.69776V20.0752H87.7348V8.65838C87.7348 6.93345 87.335 5.39755 86.5494 4.10976C85.7795 2.80622 84.728 1.82758 83.3358 1.10492L83.3319 1.11083L83.3339 1.1128Z" fill="#F5F5F5"/>
<path d="M83.3339 1.1128C81.9811 0.380291 80.3881 0.00616192 78.5903 0.00616192C76.7925 0.00616192 75.2192 0.38029 73.8369 1.12264C72.4507 1.83545 71.3894 2.82 70.5938 4.11764C69.8338 5.40543 69.4478 6.93542 69.4478 8.66626V20.0831H72.114V8.70564C72.114 7.36862 72.4153 6.19307 73.0079 5.21837C73.6203 4.22594 74.4296 3.45405 75.4122 2.91649C76.4086 2.39074 77.4758 2.12491 78.5903 2.12491C79.7048 2.12491 80.7622 2.39074 81.7291 2.91649C82.7313 3.44815 83.5406 4.22003 84.1372 5.2223C84.7536 6.19504 85.0647 7.36075 85.0647 8.69776V20.0752H87.7348V8.65838C87.7348 6.93345 87.335 5.39755 86.5494 4.10976C85.7795 2.80622 84.728 1.82758 83.3358 1.10492L83.3319 1.11083L83.3339 1.1128Z" fill="url(#paint2_linear_9141_22653)"/>
<path d="M97.4537 0.487933H94.7481V20.0785H97.4537V0.487933Z" fill="#F5F5F5"/>
<path d="M97.4537 0.487933H94.7481V20.0785H97.4537V0.487933Z" fill="url(#paint3_linear_9141_22653)"/>
<path d="M109.811 3.66409C111 2.97097 112.347 2.61653 113.824 2.61653H115.848V0.487933H113.948C111.91 0.487933 110.063 0.930981 108.474 1.80132C106.885 2.66773 105.611 3.861 104.683 5.34176C103.766 6.78708 103.301 8.449 103.301 10.2842C103.301 12.1194 103.766 13.7892 104.683 15.266C105.607 16.7212 106.885 17.8967 108.474 18.7671C109.866 19.5232 112.591 20.0805 113.81 20.0805H115.848V17.9519H113.824C112.353 17.9519 111 17.6132 109.807 16.9437C108.651 16.2506 107.71 15.3113 107.013 14.1554C106.347 12.9956 106.006 11.6921 106.006 10.2803C106.006 8.86842 106.347 7.56094 107.018 6.40114C107.71 5.25118 108.653 4.32571 109.813 3.66212V3.66803L109.811 3.66409Z" fill="#F5F5F5"/>
<path d="M109.811 3.66409C111 2.97097 112.347 2.61653 113.824 2.61653H115.848V0.487933H113.948C111.91 0.487933 110.063 0.930981 108.474 1.80132C106.885 2.66773 105.611 3.861 104.683 5.34176C103.766 6.78708 103.301 8.449 103.301 10.2842C103.301 12.1194 103.766 13.7892 104.683 15.266C105.607 16.7212 106.885 17.8967 108.474 18.7671C109.866 19.5232 112.591 20.0805 113.81 20.0805H115.848V17.9519H113.824C112.353 17.9519 111 17.6132 109.807 16.9437C108.651 16.2506 107.71 15.3113 107.013 14.1554C106.347 12.9956 106.006 11.6921 106.006 10.2803C106.006 8.86842 106.347 7.56094 107.018 6.40114C107.71 5.25118 108.653 4.32571 109.813 3.66212V3.66803L109.811 3.66409Z" fill="url(#paint4_linear_9141_22653)"/>
</g>
<g id="My">
<path d="M0.152222 20.2609L2.17883 9.79132H3.14353L5.97031 17.2247L8.78961 9.79132H9.75431L11.7884 20.2609H10.5096L9.0364 12.663L6.38161 19.6925H5.55153L2.89674 12.663L1.431 20.2609H0.152222Z" fill="#F5F5F5"/>
<path d="M17.8506 12.7826H19.1817L15.0911 24H13.76L15.1135 20.2609L12.4288 12.7826H13.8048L15.7417 18.5334L17.8506 12.7826Z" fill="#F5F5F5"/>
</g>
</g>
<defs>
<linearGradient id="paint0_linear_9141_22653" x1="118.46" y1="7.83382" x2="19.0711" y2="7.83382" gradientUnits="userSpaceOnUse">
<stop stop-color="#2B588B"/>
<stop offset="0.363625" stop-color="#5A6B83"/>
<stop offset="0.651499" stop-color="#ED5409"/>
<stop offset="1" stop-color="#FFCB67"/>
</linearGradient>
<linearGradient id="paint1_linear_9141_22653" x1="118.46" y1="7.83382" x2="19.0711" y2="7.83382" gradientUnits="userSpaceOnUse">
<stop stop-color="#2B588B"/>
<stop offset="0.363625" stop-color="#5A6B83"/>
<stop offset="0.651499" stop-color="#ED5409"/>
<stop offset="1" stop-color="#FFCB67"/>
</linearGradient>
<linearGradient id="paint2_linear_9141_22653" x1="118.46" y1="7.83382" x2="19.0711" y2="7.83382" gradientUnits="userSpaceOnUse">
<stop stop-color="#2B588B"/>
<stop offset="0.363625" stop-color="#5A6B83"/>
<stop offset="0.651499" stop-color="#ED5409"/>
<stop offset="1" stop-color="#FFCB67"/>
</linearGradient>
<linearGradient id="paint3_linear_9141_22653" x1="118.46" y1="7.83382" x2="19.0711" y2="7.83382" gradientUnits="userSpaceOnUse">
<stop stop-color="#2B588B"/>
<stop offset="0.363625" stop-color="#5A6B83"/>
<stop offset="0.651499" stop-color="#ED5409"/>
<stop offset="1" stop-color="#FFCB67"/>
</linearGradient>
<linearGradient id="paint4_linear_9141_22653" x1="118.46" y1="7.83382" x2="19.0711" y2="7.83382" gradientUnits="userSpaceOnUse">
<stop stop-color="#2B588B"/>
<stop offset="0.363625" stop-color="#5A6B83"/>
<stop offset="0.651499" stop-color="#ED5409"/>
<stop offset="1" stop-color="#FFCB67"/>
</linearGradient>
</defs>
</svg>
